<?xml version="1.0" encoding="UTF-8" standalone="no"?>
<svg
   viewBox="-32 0 512 512"
   version="1.1"
   id="svg4"
   sodipodi:docname="icon.svg"
   inkscape:version="1.2.2 (b0a8486541, 2022-12-01)"
   xmlns:inkscape="http://www.inkscape.org/namespaces/inkscape"
   xmlns:sodipodi="http://sodipodi.sourceforge.net/DTD/sodipodi-0.dtd"
   xmlns="http://www.w3.org/2000/svg"
   xmlns:svg="http://www.w3.org/2000/svg">
  <defs
     id="defs8" />
  <sodipodi:namedview
     id="namedview6"
     pagecolor="#ffffff"
     bordercolor="#000000"
     borderopacity="0.25"
     inkscape:showpageshadow="2"
     inkscape:pageopacity="0.0"
     inkscape:pagecheckerboard="0"
     inkscape:deskcolor="#d1d1d1"
     showgrid="false"
     inkscape:zoom="0.65186405"
     inkscape:cx="785.43985"
     inkscape:cy="296.84104"
     inkscape:window-width="1870"
     inkscape:window-height="1019"
     inkscape:window-x="0"
     inkscape:window-y="0"
     inkscape:window-maximized="1"
     inkscape:current-layer="layer3"
     showguides="true">
    <sodipodi:guide
       position="-17.076929,522.29949"
       orientation="1,0"
       id="guide2391"
       inkscape:locked="false" />
    <sodipodi:guide
       position="16,208"
       orientation="0,-1"
       id="guide2393"
       inkscape:locked="false" />
    <sodipodi:guide
       position="-42.18746,535.97721"
       orientation="1,0"
       id="guide2395"
       inkscape:locked="false" />
    <sodipodi:guide
       position="-17.076929,522.29949"
       orientation="1,0"
       id="guide2397"
       inkscape:locked="false" />
  </sodipodi:namedview>
  <g
     inkscape:groupmode="layer"
     id="layer1"
     inkscape:label="background"
     style="display:inline">
    <rect
       style="display:inline;fill:#55cdfc;fill-opacity:1;paint-order:fill markers stroke"
       id="rect989"
       width="512.40002"
       height="102.4"
       x="-31.305273"
       y="409.59375" />
    <rect
       style="fill:#55cdfc;fill-opacity:1;paint-order:fill markers stroke"
       id="rect992"
       width="512.40002"
       height="102.40001"
       x="-32"
       y="0" />
    <rect
       style="display:inline;fill:#f7a8b8;fill-opacity:1;stroke-width:0;stroke-linejoin:round;paint-order:fill markers stroke"
       id="rect980"
       width="512.40002"
       height="102.4"
       x="-32"
       y="102.4" />
    <rect
       style="display:inline;fill:#f7a8b8;fill-opacity:1;stroke-width:0;stroke-linejoin:round;paint-order:fill markers stroke"
       id="rect986"
       width="512.40002"
       height="102.4"
       x="-31.305273"
       y="307.19376" />
    <rect
       style="display:inline;fill:#ffffff;fill-opacity:1;stroke-width:0;stroke-linejoin:round;paint-order:fill markers stroke"
       id="rect983"
       width="512.40002"
       height="102.4"
       x="-32"
       y="204.8" />
  </g>
  <g
     inkscape:groupmode="layer"
     id="layer3"
     inkscape:label="clock"
     style="display:inline">
    <path
       id="path977"
       d="m 176.20001,0 c -17.69998,0 -32,14.30002 -32,32 0,17.69998 14.30002,32.000001 32,32.000001 h 16 v 34.40039 C 92.500122,113.80037 16.200022,200.00009 16.200022,303.99999 c 0,114.89989 93.100098,208 207.999988,208 114.89989,0 208,-93.10011 208,-208 0,-41.79996 -12.30002,-80.69925 -33.5,-113.19922 l 24.09961,-24.10156 c 12.49999,-12.49999 12.49999,-32.79884 0,-45.29883 -12.49999,-12.49999 -32.79884,-12.49999 -45.29883,0 l -21.60156,21.59961 C 327.79926,120.00001 293.69997,104.20037 256.20001,98.400391 v -34.40039 h 16 c 17.69998,0 32,-14.300021 32,-32.000001 0,-17.69998 -14.30002,-32 -32,-32 h -48 z m -5.0625,180.48046 c 4.62404,0.0827 9.227,1.3783 13.30664,3.88672 l 158.77539,97.02929 c 7.88359,4.85152 12.67969,13.34165 12.67969,22.60352 0,9.26183 -4.7961,17.80722 -12.67969,22.60352 L 184.44415,423.6328 c -8.15927,4.96172 -18.4117,5.18215 -26.73633,0.4961 -8.32467,-4.68609 -13.50781,-13.50696 -13.50781,-23.09961 v -194.0586 c 0,-9.59263 5.18314,-18.41354 13.50781,-23.09961 4.16232,-2.34303 8.80565,-3.47332 13.42969,-3.39062 z"
       style="stroke:#000000;stroke-opacity:1;fill:#b8c8e1;fill-opacity:1;stroke-width:2;stroke-dasharray:none" />
  </g>
  <!--! Font Awesome Free 6.4.2 by @fontawesome - https://fontawesome.com License - https://fontawesome.com/license (Commercial License) Copyright 2023 Fonticons, Inc. -->
</svg>
